<?xml version="1.0" encoding="UTF-8" standalone="no"?>
<!-- Created with Inkscape (http://www.inkscape.org/) -->

<svg
   width="421.57132mm"
   height="421.57132mm"
   viewBox="0 0 421.57132 421.57132"
   version="1.1"
   id="svg1"
   xml:space="preserve"
   xmlns="http://www.w3.org/2000/svg"
   xmlns:svg="http://www.w3.org/2000/svg"><defs
     id="defs1" /><g
     id="layer2"
     transform="translate(-176.68797,57.862732)"><circle
       style="fill:#ffffff;fill-opacity:1;stroke:none;stroke-width:20;stroke-linecap:round;stroke-linejoin:round;stroke-dasharray:none;stroke-opacity:1"
       id="path4"
       cx="387.47363"
       cy="152.92293"
       r="210.78566" /></g><g
     id="layer1"
     transform="translate(-176.68797,57.862732)"><g
       id="g3"
       transform="translate(-6.3396895,4.8946456)"><path
         style="fill:#00b994;fill-opacity:1"
         d="m 451.13833,265.73645 c -6.10459,-0.73856 -12.2011,-1.73962 -15.44461,-2.53604 -14.21699,-3.4909 -31.05614,-11.05983 -48.0554,-21.60015 -16.42054,-10.18149 -28.8957,-20.24361 -45.98068,-37.08673 -17.25109,-17.00688 -27.57335,-29.25246 -38.48671,-45.65784 -12.49104,-18.77701 -20.16999,-35.40453 -24.67763,-53.43541 -2.96799,-11.872194 -3.53119,-23.071006 -1.47749,-29.379176 1.74009,-5.344902 0.96765,-4.446875 21.68706,-25.213083 20.40662,-20.452718 19.8681,-19.981988 23.53523,-20.572562 1.9617,-0.315923 4.32917,0.02432 5.98688,0.860411 1.48624,0.749611 3.63135,2.618876 4.74268,4.132809 1.541,2.099253 28.45192,53.37066 28.88453,55.031574 0.53168,2.041256 0.48341,4.345861 -0.14228,6.792268 -0.97593,3.815849 -1.74522,4.836669 -9.67272,12.835249 -8.2821,8.35636 -8.19531,8.22258 -7.42743,11.44917 2.11851,8.90185 10.30218,22.33196 20.89344,34.28797 3.92327,4.4288 12.17258,12.81052 17.27111,17.54831 5.75237,5.34537 9.59417,8.53566 14.51644,12.05467 9.77476,6.98813 17.12652,10.80492 23.25768,12.07464 3.34679,0.69309 3.12567,0.84534 12.36185,-8.51106 7.41579,-7.5123 8.19602,-8.22314 10.02596,-9.13428 4.30915,-2.14553 10.02427,-2.32797 13.79643,-0.44041 0.63389,0.31719 12.09606,7.02332 25.47149,14.9025 21.5056,12.66849 24.52305,14.52474 26.08319,16.04558 2.85296,2.78109 3.93669,5.75607 3.42166,9.39285 -0.53805,3.79933 0.17938,2.97024 -19.97959,23.08918 -13.38722,13.36064 -18.84763,18.6395 -20.15063,19.48068 -1.97883,1.27747 -4.87178,2.57783 -7.16668,3.22136 -1.79758,0.50407 -10.21803,0.73722 -13.27378,0.36752 z"
         id="path1" /><path
         style="fill:#00b994;fill-opacity:1;stroke:#00b994;stroke-width:20;stroke-linecap:round;stroke-linejoin:round;stroke-dasharray:none;stroke-opacity:1"
         d="M 400.92757,106.98389 304.8341,199.97757"
         id="path2" /><path
         style="fill:#00b994;fill-opacity:1;stroke:#00b994;stroke-width:20;stroke-linecap:round;stroke-linejoin:round;stroke-dasharray:none;stroke-opacity:1"
         d="m 433.99199,140.04831 -96.09347,92.99368"
         id="path3" /></g></g></svg>
